<?xml version="1.0" encoding="iso-8859-1"?>
<!-- Generator: Adobe Illustrator 19.0.0, SVG Export Plug-In . SVG Version: 6.00 Build 0)  -->
<svg xmlns="http://www.w3.org/2000/svg" xmlns:xlink="http://www.w3.org/1999/xlink" version="1.1" id="Layer_1" x="0px" y="0px" viewBox="0 0 512 512" style="enable-background:new 0 0 512 512;" xml:space="preserve" width="512" height="512">
<g>
	<path style="fill:#B25C4A;" d="M361,105v31c0,8.399-6.599,15-15,15h-45v-46c0-24.901-20.099-45-45-45s-45,20.099-45,45v46h-45   c-8.401,0-15-6.601-15-15v-31C151,47.1,198.1,0,256,0S361,47.1,361,105z"/>
	<path style="fill:#8E4231;" d="M256,60V0c57.9,0,105,47.1,105,105v31c0,8.399-6.599,15-15,15h-45v-46C301,80.099,280.901,60,256,60   z"/>
	<path style="fill:#304653;" d="M512,286v181c0,24.899-20.099,45-45,45H45c-24.901,0-45-20.101-45-45V286H512z"/>
	<path style="fill:#1D2C37;" d="M512,286v181c0,24.899-20.099,45-45,45H256V286H512z"/>
	<rect x="121" y="361" style="fill:#B25C4A;" width="30" height="151"/>
	<path style="fill:#4D5A68;" d="M467,121H45c-24.901,0-45,20.099-45,45v120c0,41.4,33.6,75,75,75h361c41.4,0,76-33.6,76-75V166   C512,141.099,491.901,121,467,121z"/>
	<path style="fill:#304653;" d="M512,166v120c0,41.4-34.6,75-76,75H256V121h211C491.901,121,512,141.099,512,166z"/>
	<path style="fill:#FFCA42;" d="M166,271h-60c-8.401,0-15,6.599-15,15v60c0,24.899,20.099,45,45,45s45-20.101,45-45v-60   C181,277.599,174.401,271,166,271z"/>
	<path style="fill:#B25C4A;" d="M211,286c0,8.399-6.599,15-15,15H76c-8.401,0-15-6.601-15-15c0-8.401,6.599-15,15-15h120   C204.401,271,211,277.599,211,286z"/>
	<rect x="361" y="361" style="fill:#8E4231;" width="30" height="151"/>
	<path style="fill:#FFAF3E;" d="M406,271h-60c-8.401,0-15,6.599-15,15v60c0,24.899,20.099,45,45,45s45-20.101,45-45v-60   C421,277.599,414.401,271,406,271z"/>
	<path style="fill:#8E4231;" d="M451,286c0,8.399-6.599,15-15,15H316c-8.401,0-15-6.601-15-15c0-8.401,6.599-15,15-15h120   C444.401,271,451,277.599,451,286z"/>
</g>















</svg>
